HIERARCHY
ROOT Hips
{
    OFFSET 0.000000 0.000000 0.000000
    CHANNELS 6 Xposition Yposition Zposition Zrotation Xrotation Yrotation
    JOINT Spine
    {
        OFFSET -0.000000 14.517291 0.000000
        CHANNELS 3 Zrotation Xrotation Yrotation
        JOINT Spine1
        {
            OFFSET -0.000000 37.558300 0.000000
            CHANNELS 3 Zrotation Xrotation Yrotation
            JOINT Neck
            {
                OFFSET -0.000000 37.404057 3.400369
                CHANNELS 3 Zrotation Xrotation Yrotation
                JOINT Head
                {
                    OFFSET -0.000000 24.785618 -3.540803
                    CHANNELS 3 Zrotation Xrotation Yrotation
                    End Site
                    {
                        OFFSET -0.000000 35.408028 0.000000
                    }
                }
            }
            JOINT LeftShoulder
            {
                OFFSET 6.992933 33.973492 -0.192664
                CHANNELS 3 Zrotation Xrotation Yrotation
                JOINT LeftArm
                {
                    OFFSET 21.527611 0.000000 0.000000
                    CHANNELS 3 Zrotation Xrotation Yrotation
                    JOINT LeftForeArm
                    {
                        OFFSET 56.353916 0.000000 0.000000
                        CHANNELS 3 Zrotation Xrotation Yrotation
                        JOINT LeftHand
                        {
                            OFFSET 47.774071 0.000000 0.000000
                            CHANNELS 3 Zrotation Xrotation Yrotation
                            End Site
                            {
                                OFFSET 26.556021 0.000000 0.000000
                            }
                        }
                    }
                }
            }
            JOINT RightShoulder
            {
                OFFSET -7.065357 33.973492 -0.192664
                CHANNELS 3 Zrotation Xrotation Yrotation
                JOINT RightArm
                {
                    OFFSET -21.527611 0.000000 0.000000
                    CHANNELS 3 Zrotation Xrotation Yrotation
                    JOINT RightForeArm
                    {
                        OFFSET -56.353916 0.000000 0.000000
                        CHANNELS 3 Zrotation Xrotation Yrotation
                        JOINT RightHand
                        {
                            OFFSET -47.774071 0.000000 0.000000
                            CHANNELS 3 Zrotation Xrotation Yrotation
                            End Site
                            {
                                OFFSET -26.556021 0.000000 0.000000
                            }
                        }
                    }
                }
            }
        }
    }
    JOINT LeftUpLeg
    {
        OFFSET 17.704014 0.000000 0.000000
        CHANNELS 3 Zrotation Xrotation Yrotation
        JOINT LeftLeg
        {
            OFFSET -0.000000 -81.181816 0.000000
            CHANNELS 3 Zrotation Xrotation Yrotation
            JOINT LeftFoot
            {
                OFFSET -0.000000 -62.821102 0.000000
                CHANNELS 3 Zrotation Xrotation Yrotation
                JOINT LeftToeBase
                {
                    OFFSET -0.000000 -11.507608 26.556021
                    CHANNELS 3 Zrotation Xrotation Yrotation
                    End Site
                    {
                        OFFSET -0.000000 0.000000 7.081605
                    }
                }
            }
        }
    }
    JOINT RightUpLeg
    {
        OFFSET -17.704014 0.000000 0.000000
        CHANNELS 3 Zrotation Xrotation Yrotation
        JOINT RightLeg
        {
            OFFSET -0.000000 -81.181816 0.000000
            CHANNELS 3 Zrotation Xrotation Yrotation
            JOINT RightFoot
            {
                OFFSET -0.000000 -62.821102 0.000000
                CHANNELS 3 Zrotation Xrotation Yrotation
                JOINT RightToeBase
                {
                    OFFSET -0.000000 -11.507608 26.556021
                    CHANNELS 3 Zrotation Xrotation Yrotation
                    End Site
                    {
                        OFFSET -0.000000 0.000000 7.081605
                    }
                }
            }
        }
    }
}
MOTION
Frames:    11
Frame Time:    0.008333
15.488064    156.599182    -116.339088    -0.983999    -4.943258    40.244930    -0.730920    -4.779621    0.265662    -6.408261    3.469980    0.290646    -2.595325    -5.640413    -22.857887    14.822402    9.415089    -22.520159    6.818295    7.826047    -26.250076    -27.759016    26.308151    -58.323483    -17.929102    -0.233078    -81.252762    8.158389    -16.173290    -7.780837    -13.507179    -2.100907    0.177632    40.383072    1.704004    89.831169    -22.939262    -36.085152    60.341377    1.284637    -24.204605    17.682478    17.507479    2.027296    0.386753    -12.018208    28.890148    -18.342419    2.953727    -27.137609    44.641449    0.000000    0.000000    0.000000    -15.923853    -16.405842    -10.616046    8.013210    19.502289    -15.132812    4.861908    10.657576    -14.425600    0.000000    0.000000    0.000000    
15.459916    156.682770    -116.286453    -1.029360    -4.951577    40.338921    -0.726876    -4.761271    0.206729    -6.473627    3.457096    0.272465    -2.587341    -5.710695    -22.876974    14.847680    9.402205    -22.537258    6.832378    7.778043    -26.275179    -27.608946    26.392918    -58.350948    -17.066273    -0.482778    -80.993118    5.720058    -15.464641    -8.180131    -13.642273    -2.391315    0.123291    40.081799    0.555901    89.611603    -22.517807    -35.783848    59.560581    1.599775    -24.241734    18.140255    17.541494    2.053260    0.284515    -11.960804    28.693760    -18.324945    2.821280    -27.058592    44.619385    0.000000    0.000000    0.000000    -15.839191    -16.276297    -10.609593    7.978004    19.264755    -15.213810    4.855225    10.760798    -14.419020    0.000000    0.000000    0.000000    
15.427606    156.765076    -116.237000    -1.080941    -4.950151    40.422897    -0.734162    -4.751900    0.170811    -6.520985    3.427197    0.260120    -2.594623    -5.709577    -22.895336    14.920847    9.330193    -22.541828    6.864963    7.748041    -26.350689    -27.548059    26.355625    -58.474991    -18.034534    -0.246511    -81.083267    8.269221    -16.230146    -7.660006    -13.771178    -2.673682    0.076129    39.783405    -0.612796    89.382767    -22.109505    -35.377987    58.690037    1.831075    -24.176691    18.678761    17.542236    2.043087    0.209352    -11.904544    28.483414    -18.316341    2.823730    -26.892876    44.777866    0.000000    0.000000    0.000000    -15.759069    -16.163717    -10.597336    7.957817    19.025799    -15.241124    4.865753    10.860532    -14.483133    0.000000    0.000000    0.000000    
15.389487    156.843643    -116.186760    -1.139185    -4.943252    40.512287    -0.728141    -4.746826    0.134254    -6.577821    3.397142    0.247313    -2.603066    -5.686894    -22.919348    15.000896    9.212541    -22.546047    6.899221    7.719459    -26.423897    -27.537706    26.289490    -58.436565    -17.295984    -0.299128    -80.806221    5.843149    -15.441782    -8.121981    -13.915597    -3.001877    0.001879    39.502769    -1.704968    89.194664    -21.688982    -34.938717    57.791759    1.870658    -24.109983    19.012259    17.587442    2.054760    0.130732    -11.853752    28.281359    -18.330799    2.764308    -26.787621    44.767948    0.000000    0.000000    0.000000    -15.677344    -16.070091    -10.606395    7.919380    18.813492    -15.270597    4.882585    10.958178    -14.517538    0.000000    0.000000    0.000000    
15.345939    156.921417    -116.139771    -1.201653    -4.938861    40.590656    -0.702198    -4.734476    0.105308    -6.642945    3.362023    0.236990    -2.639817    -5.614128    -22.949324    15.123644    9.035513    -22.541571    6.941665    7.697134    -26.481806    -27.509811    26.229078    -58.496754    -17.377504    -0.207036    -80.737328    5.862971    -15.405773    -8.111344    -14.037223    -3.399163    -0.067935    39.212898    -2.771309    88.994232    -21.158487    -34.390327    56.884197    1.791826    -23.991194    19.365063    17.628712    2.061143    0.102076    -11.764932    28.098377    -18.356766    2.655918    -26.694441    44.726494    0.000000    0.000000    0.000000    -15.591197    -15.986101    -10.586603    7.898794    18.601580    -15.305302    4.870196    11.066404    -14.565711    0.000000    0.000000    0.000000    
15.309485    156.995041    -116.091003    -1.248833    -4.945102    40.669456    -0.658374    -4.702000    0.083484    -6.730367    3.326792    0.230204    -2.638831    -5.554173    -22.975548    15.171108    8.846618    -22.542650    6.991629    7.726361    -26.550060    -27.426964    26.126623    -58.661488    -18.431313    0.047428    -80.932343    8.651976    -16.266018    -7.579113    -14.191369    -3.767051    -0.123764    38.672340    -3.846657    88.740448    -20.712448    -33.988903    55.910694    1.634644    -24.010138    19.668539    17.669228    2.077876    0.070366    -11.681589    27.945963    -18.412670    2.561653    -26.613962    44.703487    0.000000    0.000000    0.000000    -15.511418    -15.881909    -10.547954    7.891402    18.385229    -15.369605    4.866757    11.153069    -14.615411    0.000000    0.000000    0.000000    
15.276468    157.063477    -116.044823    -1.286635    -4.948275    40.741989    -0.611150    -4.665071    0.055400    -6.823842    3.298672    0.221697    -2.656883    -5.599185    -23.005880    15.174589    8.791067    -22.562195    7.030344    7.592479    -26.589317    -27.510857    26.164381    -58.671143    -18.533901    0.138441    -80.916954    8.662503    -16.263512    -7.586719    -14.406969    -4.211598    -0.176226    38.383083    -4.834441    88.503342    -20.102358    -33.425774    55.031681    1.414373    -23.915247    19.910013    17.702379    2.098908    0.052917    -11.609403    27.797291    -18.469166    2.486073    -26.523212    44.684059    0.000000    0.000000    0.000000    -15.443404    -15.780619    -10.519114    7.881088    18.186794    -15.403406    4.880753    11.221361    -14.678698    0.000000    0.000000    0.000000    
15.236193    157.128876    -115.998444    -1.331002    -4.940933    40.821812    -0.575238    -4.644614    0.016006    -6.897944    3.285053    0.210722    -2.635165    -5.532921    -23.046616    15.183742    8.556594    -22.578773    7.051681    7.578474    -26.582638    -27.436026    26.140194    -58.818279    -18.611511    0.175862    -80.949806    8.774520    -16.307585    -7.547981    -14.657269    -4.651760    -0.211711    38.197613    -5.757226    88.365707    -19.618254    -32.876991    53.971260    1.694924    -23.716133    20.487001    17.738577    2.089722    0.032770    -11.541480    27.674435    -18.492649    2.374717    -26.447655    44.631264    0.000000    0.000000    0.000000    -15.372564    -15.694983    -10.537159    7.842630    17.995487    -15.459506    4.844422    11.312226    -14.650625    0.000000    0.000000    0.000000    
15.190304    157.187241    -115.962685    -1.380908    -4.920360    40.887695    -0.536298    -4.621895    -0.014420    -6.989400    3.267356    0.213066    -2.656194    -5.614346    -23.072868    15.205669    8.518652    -22.593880    7.078400    7.532405    -26.569479    -27.374426    26.141190    -58.981293    -18.653645    0.194622    -80.979988    8.763838    -16.328955    -7.486840    -14.879537    -5.076755    -0.266142    37.849598    -6.718392    88.137711    -19.082375    -32.295261    52.983696    1.842437    -23.502768    20.989422    17.768732    2.062983    0.015790    -11.481911    27.556511    -18.523085    2.275154    -26.381433    44.600910    0.000000    0.000000    0.000000    -15.308541    -15.636589    -10.566477    7.804996    17.821911    -15.483304    4.841561    11.384953    -14.663014    0.000000    0.000000    0.000000    
15.144353    157.239960    -115.930794    -1.428744    -4.889550    40.954197    -0.506010    -4.608733    -0.023066    -7.093062    3.252831    0.193279    -2.667207    -5.685254    -23.105852    15.263707    8.504233    -22.619377    7.133007    7.493546    -26.541199    -27.264446    26.199776    -59.208584    -18.706219    0.109567    -81.049767    8.829416    -16.474936    -7.427697    -15.068762    -5.442510    -0.286069    37.441261    -7.690097    87.956673    -18.768841    -31.643085    51.740032    2.094416    -23.123995    21.816336    17.790697    2.013667    -0.027586    -11.435854    27.488356    -18.718786    2.270257    -26.325737    44.783550    0.000000    0.000000    0.000000    -15.259291    -15.589052    -10.622748    7.768083    17.659554    -15.494249    4.840761    11.441601    -14.664474    0.000000    0.000000    0.000000    
15.087339    157.287994    -115.898041    -1.491932    -4.858485    41.017578    -0.470135    -4.605372    -0.038683    -7.206597    3.236788    0.194769    -2.690602    -5.762366    -23.151581    15.374112    8.533671    -22.658575    7.196696    7.437985    -26.529676    -27.156445    26.241268    -59.442226    -18.649300    0.051141    -81.069092    8.616661    -16.475651    -7.448732    -15.243762    -5.858435    -0.257941    37.171078    -8.777237    87.648384    -18.003502    -30.810356    50.830322    2.197828    -22.715303    22.397087    17.833672    1.956806    -0.039661    -11.402656    27.372866    -18.545233    2.127272    -26.233624    44.556530    0.000000    0.000000    0.000000    -15.144102    -15.618917    -10.768829    7.564933    17.611885    -15.569396    4.870804    11.522599    -14.482208    0.000000    0.000000    0.000000    
